<svg width="20" height="20" viewBox="0 0 20 20" fill="none" xmlns="http://www.w3.org/2000/svg">
<circle cx="10" cy="10" r="10" fill="#B9B3B3"></circle>
<path d="M12.9167 6.79163H13.2083M12.0195 9.70071C12.0588 9.96595 12.0455 10.2363 11.9803 10.4964C11.9151 10.7565 11.7993 11.0012 11.6395 11.2166C11.4797 11.4319 11.2791 11.6137 11.0491 11.7515C10.8191 11.8893 10.5642 11.9805 10.299 12.0198C10.0337 12.059 9.76332 12.0457 9.50323 11.9805C9.24314 11.9153 8.99844 11.7995 8.7831 11.6398C8.34819 11.3171 8.05928 10.8349 7.97991 10.2992C7.90055 9.76353 8.03723 9.21826 8.35989 8.78335C8.68256 8.34845 9.16477 8.05953 9.70045 7.98017C10.2361 7.9008 10.7814 8.03749 11.2163 8.36015C11.6512 8.68281 11.9401 9.16503 12.0195 9.70071Z" stroke="black" stroke-width="1.5" stroke-linecap="round" stroke-linejoin="round"></path>
<path d="M4.75 8.48333C4.75 7.17667 4.75 6.52333 5.00433 6.024C5.22803 5.58497 5.58497 5.22803 6.024 5.00433C6.52333 4.75 7.17667 4.75 8.48333 4.75H11.5167C12.8233 4.75 13.4767 4.75 13.976 5.00433C14.415 5.22803 14.772 5.58497 14.9957 6.024C15.25 6.52333 15.25 7.17667 15.25 8.48333V11.5167C15.25 12.8233 15.25 13.4767 14.9957 13.976C14.772 14.415 14.415 14.772 13.976 14.9957C13.4767 15.25 12.8233 15.25 11.5167 15.25H8.48333C7.17667 15.25 6.52333 15.25 6.024 14.9957C5.58497 14.772 5.22803 14.415 5.00433 13.976C4.75 13.4767 4.75 12.8233 4.75 11.5167V8.48333Z" stroke="black" stroke-width="1.5" stroke-linecap="round" stroke-linejoin="round"></path>
</svg>
